<svg width="360" height="125" viewBox="0 0 360 125" fill="none" xmlns="http://www.w3.org/2000/svg">
<rect width="360" height="123.714" transform="matrix(-1 0 0 -1 360 124.714)" fill="#DFBBFE"/>
<path d="M165.329 47.1105C173.637 44.3362 181.905 45.4228 187.671 46.8562C191.854 47.9023 196.078 49.168 199.849 51.3297C205.184 54.3698 209.559 59.531 209.6 65.9292C209.527 70.5384 207.634 74.9347 204.329 78.1706C201.015 81.3764 196.798 83.5068 192.238 84.2797C184.808 85.6379 176.954 83.7364 170.6 79.656C164.247 75.5755 159.359 69.5068 156.177 62.6983C152.278 54.3756 150.667 44.9604 151.057 35.8227C151.534 24.3963 153.209 9.65802 161.582 1.00003" stroke="#2D2D2D" stroke-linecap="round" stroke-linejoin="round"/>
<path d="M160.373 6.45032C160.07 4.491 160.996 2.89002 161.577 1.00006C160.04 1.76732 158.55 2.62421 157.115 3.56624" stroke="#2D2D2D" stroke-linecap="round" stroke-linejoin="round"/>
<path d="M170.054 59.608C172.504 59.608 174.198 60.994 174.198 63.346C174.198 65.628 172.588 67.168 169.998 67.168C168.472 67.168 167.282 66.622 166.708 65.838L166.694 67H165.364V57.032H166.862V60.742C167.478 60.042 168.626 59.608 170.054 59.608ZM169.802 65.936C171.58 65.936 172.7 64.984 172.7 63.346C172.7 61.61 171.566 60.826 169.802 60.826C168.066 60.826 166.792 61.68 166.792 63.304C166.792 64.928 168.052 65.936 169.802 65.936ZM184.263 65.922H184.795V67H183.773C182.807 67 182.317 66.622 182.233 65.866C181.659 66.636 180.497 67.182 178.719 67.182C176.633 67.182 175.555 66.51 175.555 65.054C175.555 63.724 176.367 63.066 178.663 62.842L181.071 62.604C181.827 62.534 182.023 62.38 182.023 62.044V61.946C182.023 61.232 181.631 60.728 179.755 60.728C178.159 60.728 177.571 61.036 177.417 61.96L175.947 61.946C176.115 60.35 177.277 59.566 179.825 59.566C182.373 59.566 183.521 60.364 183.521 62.044V65.306C183.521 65.698 183.633 65.922 184.263 65.922ZM179.041 66.09C180.777 66.09 181.939 65.334 182.023 64.424V63.416C181.883 63.458 181.743 63.5 181.575 63.514L178.985 63.794C177.529 63.948 177.025 64.242 177.025 64.984C177.025 65.796 177.683 66.09 179.041 66.09ZM190.093 67.196C187.433 67.196 185.739 65.866 185.739 63.444C185.739 61.008 187.419 59.58 190.149 59.58C192.431 59.58 193.845 60.518 194.139 62.198H192.711C192.459 61.246 191.633 60.77 190.177 60.77C188.231 60.77 187.237 61.722 187.237 63.388C187.237 65.054 188.301 66.02 190.163 66.02C191.605 66.02 192.431 65.432 192.697 64.438H194.125C193.803 66.16 192.445 67.196 190.093 67.196ZM203.764 59.776L199.998 62.506L204.044 67H202.266L200.082 64.55L198.976 63.248L197.282 64.396V67H195.784V57.032H197.282V61.176L197.212 63.066L201.79 59.776H203.764Z" fill="black"/>
</svg>
